<?xml version="1.0" encoding="utf-8" ?>
<svg baseProfile="full" height="200mm" version="1.1" viewBox="0,0,200,200" width="200mm" xmlns="http://www.w3.org/2000/svg" xmlns:ev="http://www.w3.org/2001/xml-events" xmlns:xlink="http://www.w3.org/1999/xlink"><defs /><rect fill="#1a1a1a" height="200" width="200" x="0" y="0" /><rect fill="#1a1a1a" height="200" width="180" x="10" y="0" /><text alignment-baseline="middle" fill="#e1ed5e" style="dominant-baseline: central; font-size:9.0px; font-family:Arial;" text-anchor="middle" x="100.0" y="100.0">2026</text><line stroke="#e1ed5e" stroke-width="0.3" x1="100.0" x2="100.0" y1="15.0" y2="10.0" /><path d="M 100.0 14.0 a86.0,86.0 0 0,1 42.46469731375804,11.215312516191453" fill="none" id="id37" stroke="none" /><text fill="#e1ed5e" style="font-size:6.75px; font-family:Arial;" text-anchor="middle"><textPath startOffset="22.20632615414155" xlink:href="#id37">January</textPath></text><path d="M 103.95276090670814 79.375362276772 l 2.3662022233354434 -12.346323187261202 a33.57102259985325,33.57102259985325 0 0,0 0.5666046703774413,0.11365556653772374 l -2.57837330318001 12.303763664646269" fill="#ff6309" stroke="none" /><path d="M 104.307194497241 79.44645832069477 l 2.6556472283502393 -12.67250783041988 a33.94777652392477,33.94777652392477 0 0,0 0.5709002037254328,0.12477667225261337 l -2.8733901562292004 12.624917660071397" fill="#ff6909" stroke="none" /><path d="M 104.66035177308747 79.52364482259891 l 3.3778359547524635 -14.841319305534947 a36.22085853248964,36.22085853248964 0 0,0 0.6067447652195822,0.1435968827903362 l -3.6328044069345693 14.780976510603741" fill="#ff8a0c" stroke="none" /><line stroke="#e1ed5e" stroke-width="0.3" x1="143.23703022742887" x2="145.7803849466894" y1="26.81831364943548" y2="22.513508569990506" /><path d="M 143.74570117128098 25.957352633546492 a86.0,86.0 0 0,1 28.547481713284135,27.462654790039103" fill="none" id="id38" stroke="none" /><text fill="#e1ed5e" style="font-size:6.75px; font-family:Arial;" text-anchor="middle"><textPath startOffset="19.985693538727396" xlink:href="#id38">February</textPath></text><path d="M 116.60985879189232 87.15038557335679 l 11.949474384408884 -9.244277170836245 a36.10783235526819,36.10783235526819 0 0,0 0.3760786515453032,0.49487542198959905 l -12.106828976178301 9.037216972965613" fill="#ff890c" stroke="none" /><path d="M 116.82858285166822 87.43820079747576 l 12.207467621034317 -9.11233930856799 a36.233416996625365,36.233416996625365 0 0,0 0.36878266136014626,0.5030191356489488 l -12.362512894908088 8.900857729247546" fill="#ff8a0c" stroke="none" /><path d="M 117.45458315368197 88.32363383020206 l 10.459102954880628 -6.996690487165271 a33.583581063988966,33.583581063988966 0 0,0 0.3172902609440615,0.4832548354513768 l -10.577989851182615 6.81561758773622" fill="#ff6309" stroke="none" /><line stroke="#e1ed5e" stroke-width="0.3" x1="172.23445277983987" x2="176.4835382374775" y1="55.19839476539836" y2="52.563006222186495" /><path d="M 173.08426987136738 54.67131705675599 a86.0,86.0 0 0,1 12.851231095245387,41.99856678651699" fill="none" id="id39" stroke="none" /><text fill="#e1ed5e" style="font-size:6.75px; font-family:Arial;" text-anchor="middle"><textPath startOffset="22.20632615414155" xlink:href="#id39">March</textPath></text><path d="M 118.21658344932153 89.55222093294921 l 16.351773199778027 -9.378252196471335 a39.85025466771201,39.85025466771201 0 0,0 0.3361508622350351,0.5979748751949525 l -16.510781703305494 9.095393811341589" fill="#ffbe11" stroke="none" /><path d="M 118.56541770881063 90.18545643968196 l 14.932903007602839 -7.89422728585144 a37.89113426254008,37.89113426254008 0 0,0 0.2998642419665558,0.5792422706081437 l -15.066576682729512 7.636012292982952" fill="#ffa20f" stroke="none" /><path d="M 118.73160827565052 90.50648371742162 l 11.325136822482927 -5.73978321799685 a33.69660724121042,33.69660724121042 0 0,0 0.2577629786067684,0.519634435961088 l -11.422259814043104 5.543989193536812" fill="#ff6509" stroke="none" /><path d="M 119.34039704204932 91.81776055985345 l 21.45490196504172 -9.076811849372492 a44.295950971756014,44.295950971756014 0 0,0 0.2910419329930762,0.7047811259817811 l -21.607965584920994 8.706156152937409" fill="#fffb17" stroke="none" /><path d="M 119.61058180528143 92.48833698450437 l 8.643212712569895 -3.31070755129701 a30.25558806802382,30.25558806802382 0 0,0 0.18210321447538988,0.4879460787719544 l -8.69892051554691 3.1614383354957227" fill="#ff3104" stroke="none" /><path d="M 119.97218684219823 93.5106431181261 l 31.07779141072803 -10.097786544763379 a53.67712368113701,53.67712368113701 0 0,0 0.27795680225806707,0.8811990217038334 l -31.2470036967543 9.561337356633125" fill="#8eff24" stroke="none" /><path d="M 120.6074358757038 95.95851677861258 l 12.508557644749366 -2.4531497343934117 a33.74684109775329,33.74684109775329 0 0,0 0.10688793837838427,0.5709996408770999 l -12.548931307037611 2.237472016053749" fill="#ff6609" stroke="none" /><path d="M 120.78858239683441 97.02765380044208 l 14.483316972831316 -2.07082096024706 a35.63061071811092,35.63061071811092 0 0,0 0.08158391996854845,0.6078949657777772 l -14.516816891857701 1.8212076524046186" fill="#ff820b" stroke="none" /><path d="M 120.94382443527127 98.46500227214037 l 39.17779306732624 -2.871386910578911 a60.28287581652443,60.28287581652443 0 0,0 0.06694100174264583,1.0355476681700522 l -39.2214146600733 2.196580178155824" fill="#43ff2d" stroke="none" /><line stroke="#e1ed5e" stroke-width="0.3" x1="184.98032266829074" x2="189.97916517819016" y1="98.17113171792111" y2="98.06355123074" /><path d="M 185.9800911702706 98.14961562048488 a86.0,86.0 0 0,1 -9.607161424134198,41.387399972396054" fill="none" id="id40" stroke="none" /><text fill="#e1ed5e" style="font-size:6.75px; font-family:Arial;" text-anchor="middle"><textPath startOffset="21.466115282336823" xlink:href="#id40">April</textPath></text><path d="M 120.99513854157772 99.54816195383933 l 15.368001616388623 -0.3307359849039228 a36.37156010211825,36.37156010211825 0 0,0 0.008083133910198425,0.6260476292709735 l -15.371417757416538 0.06615209757248666" fill="#ff8c0c" stroke="none" /><path d="M 120.99980553446 99.90962569577887 l 15.50955958366783 -0.06674660171733746 a36.509703207611146,36.509703207611146 0 0,0 -0.0027046782971200567,0.6284719839594266 l -15.508410608081208 -0.20023486044577388" fill="#ff8e0d" stroke="none" /><path d="M 120.81339534386255 102.79330883721812 l 9.061321670904812 1.2160951868757994 a30.142561890802362,30.142561890802362 0 0,0 -0.07344156113970143,0.51365010755878 l -9.039046058748509 -1.3718907664149886" fill="#ff2f04" stroke="none" /><path d="M 120.70491114924044 103.5080841355445 l 52.945408400746636 8.970671060686852 a74.69999264432815,74.69999264432815 0 0,0 -0.22571334716757405,1.2659203191658526 l -52.783148611239874 -9.880710130585923" fill="#40ffca" stroke="none" /><path d="M 120.49622156327973 104.57218783832717 l 13.556456006795557 3.024101934774834 a34.889661334103586,34.889661334103586 0 0,0 -0.13580291296782382,0.5850353947729408 l -13.502392527897179 -3.2570059868963397" fill="#ff770a" stroke="none" /><path d="M 120.41448212921028 104.9243191809786 l 12.305978000108825 2.9684105197029935 a33.65893184880327,33.65893184880327 0 0,0 -0.14070825663040745,0.5620595407140784 l -12.253058429183355 -3.1797978998144676" fill="#ff6409" stroke="none" /><path d="M 120.13307415673323 105.97154293290107 l 5.899611427245098 1.7498461810138313 a27.15364742650159,27.15364742650159 0 0,0 -0.13676804412055318,0.4469658815320403 l -5.868616610618412 -1.8511390350979289" fill="#ff0000" stroke="none" /><path d="M 119.26925614724726 108.34839909993367 l 17.342778794379758 7.5137533992474355 a39.90048852425488,39.90048852425488 0 0,0 -0.2784653484193852,0.6278658479806881 l -17.210872361229097 -7.811167583720811" fill="#ffbf11" stroke="none" /><path d="M 119.12269723197855 108.67885076344098 l 13.883055844871842 6.300835512715658 a36.24597546076108,36.24597546076108 0 0,0 -0.26274083345373456,0.5659203807375 l -13.772540394578277 -6.538875960731988" fill="#ff8b0c" stroke="none" /><path d="M 118.64920377521936 109.65438752849418 l 55.94761132565807 28.96316258548255 a84.0,84.0 0 0,0 -0.6757899671004277,1.2783399396554627 l -55.44076885033275 -29.921917540224147" fill="#4dd2ff" stroke="none" /><line stroke="#e1ed5e" stroke-width="0.3" x1="174.80103733775053" x2="179.2010983576182" y1="140.37084112569926" y2="142.7455964860345" /><path d="M 175.68104954172406 140.8457921977663 a86.0,86.0 0 0,1 -30.038265399797805,32.042727171017184" fill="none" id="id41" stroke="none" /><text fill="#e1ed5e" style="font-size:6.75px; font-family:Arial;" text-anchor="middle"><textPath startOffset="22.206326154141568" xlink:href="#id41">May</textPath></text><path d="M 118.48025628344425 109.97397251340804 l 13.277361130692992 7.165919830168237 a36.087701137258634,36.087701137258634 0 0,0 -0.2997403050953092,0.5441157192050068 l -13.152044416146174 -7.393406067771049" fill="#ff880c" stroke="none" /><path d="M 117.75023020441432 111.22182372390056 l 17.608370943861605 11.132139274899453 a41.83216868529027,41.83216868529027 0 0,0 -0.39002548490336597,0.6053282139000907 l -17.414140595581188 -11.433589088720996" fill="#ffd914" stroke="none" /><path d="M 117.55443506779139 111.5257021239791 l 13.346724181082081 8.763048577069087 a36.96640431437065,36.96640431437065 0 0,0 -0.3538158319676297,0.5289066624291228 l -13.19390524370373 -8.991492153704018" fill="#ff950d" stroke="none" /><path d="M 117.14729908036423 112.12312394758627 l 11.928617854621773 8.433521343344914 a35.60877154897891,35.60877154897891 0 0,0 -0.3581567676107168,0.49744842493515623 l -11.781681294635455 -8.637603373731201" fill="#ff810b" stroke="none" /><path d="M 116.93607887273984 112.41649034213515 l 15.727891921026458 11.530722052428537 a40.50190081325026,40.50190081325026 0 0,0 -0.4170514156332503,0.5587085248090381 l -15.527079238698116 -11.79974345674689" fill="#ffc712" stroke="none" /><path d="M 116.498646956653 112.99209946851258 l 6.09520280934624 4.799756088353103 a28.758167038337405,28.758167038337405 0 0,0 -0.3096050690239332,0.38627992756297075 l -6.011679828267453 -4.903963849494324" fill="#ff1902" stroke="none" /><path d="M 116.27256486870786 113.27417163493432 l 10.050240163816524 8.19837646881075 a33.96999244698086,33.96999244698086 0 0,0 -0.37351462569495236,0.44992242833609375 l -9.907629538228027 -8.370160154260613" fill="#ff6909" stroke="none" /><path d="M 116.0416608686014 113.55231037782055 l 7.257614035485885 6.131374975258831 a30.50087998952265,30.50087998952265 0 0,0 -0.34227432543875047,0.3981423667073359 l -7.150997200476356 -6.255394441127695" fill="#ff3505" stroke="none" /><path d="M 115.56566222782051 114.09645910891815 l 9.794984914428504 8.870461294729294 a34.21464388680877,34.21464388680877 0 0,0 -0.39909523424862003,0.43313905451082346 l -9.640843272184162 -9.037751604041452" fill="#ff6d0a" stroke="none" /><path d="M 115.32070863581623 114.36230785411682 l 5.569141114694709 5.220758456647156 a28.633587074111084,28.633587074111084 0 0,0 -0.3401853516909848,0.35668298120488434 l -5.47844921162476 -5.315848554434548" fill="#ff1702" stroke="none" /><path d="M 115.07121518719521 114.62390073753431 l 12.463876636544516 12.093948130510446 a38.36697446864241,38.36697446864241 0 0,0 -0.4639834692650786,0.470012804726638 l -12.253852542223902 -12.30670142921775" fill="#ffa90f" stroke="none" /><path d="M 114.81725581225074 114.88116024355365 l 6.32689350662625 6.354180376514854 a29.966894094471947,29.966894094471947 0 0,0 -0.3686642150693504,0.3608155279770198 l -6.216579339181106 -6.462146007414447" fill="#ff2c04" stroke="none" /><path d="M 114.55890576462653 115.13401014063108 l 9.690056433916627 10.072832031820186 a34.97709336141645,34.97709336141645 0 0,0 -0.43748709729577495,0.41367135706095315 l -9.515233502230044 -10.23813802562706" fill="#ff780b" stroke="none" /><path d="M 114.0293411484842 115.62618273729858 l 7.0545349754019195 7.857493198403323 a31.559671542340862,31.559671542340862 0 0,0 -0.40735668149084936,0.35944490886645675 l -6.9182359410044825 -7.977761249042069" fill="#ff4506" stroke="none" /><path d="M 113.75828350139079 115.86535959552629 l 5.881916958327282 6.782730392599714 a29.977882750590695,29.977882750590695 0 0,0 -0.3927595468482346,0.33471820656046464 l -5.764291934902 -6.882972989383126" fill="#ff2c04" stroke="none" /><path d="M 113.48314897796784 116.09983520530334 l 20.309471952211375 24.250948504064905 a52.63199573729847,52.63199573729847 0 0,0 -0.6995791525994517,0.5757060154831256 l -19.88902267106723 -24.59694963840521" fill="#9aff23" stroke="none" /><path d="M 112.92097659922987 116.55440617244103 l 5.428547362467153 6.955076288116719 a29.822823393906994,29.822823393906994 0 0,0 -0.40739577461543236,0.3123737077280879 l -5.3080228593582275 -7.047489337672178" fill="#ff2a04" stroke="none" /><path d="M 112.63410532772338 116.77436683061366 l 5.334315909647983 7.082398756203646 a29.866526849099287,29.866526849099287 0 0,0 -0.41331721827360635,0.30576219705966284 l -5.211613720955812 -7.173170902003077" fill="#ff2b04" stroke="none" /><path d="M 112.04921762599082 117.19931262002967 l 7.744093825224217 11.054086231422026 a34.49680745901007,34.49680745901007 0 0,0 -0.48926840972171987,0.33652327359414935 l -7.552668530879614 -11.18575029438127" fill="#ff710a" stroke="none" /><path d="M 111.7513745106137 117.40417183066458 l 5.660133756143907 8.382844099428576 a31.114800508797206,31.114800508797206 0 0,0 -0.4464607922361541,0.29588986833122166 l -5.5149982651677885 -8.479031988851116" fill="#ff3e05" stroke="none" /><path d="M 111.45004920935366 117.60387380957326 l 12.5142283120828 19.239995567017306 a43.95176114518841,43.95176114518841 0 0,0 -0.6377572120488357,0.4070468271676901 l -12.181189297987034 -19.452556823008806" fill="#fff617" stroke="none" /><path d="M 111.1453310114006 117.79835938074945 l 3.4710723784871087 5.543073917294334 a27.54018439413484,27.54018439413484 0 0,0 -0.40394998243300756,0.24813907204968702 l -3.3751431961217926 -5.602001456172399" fill="#ff0601" stroke="none" /><line stroke="#e1ed5e" stroke-width="0.3" x1="143.8653032363475" x2="146.44561519142675" y1="172.8068346515853" y2="177.08958963109032" /><path d="M 144.38136562736335 173.6633856474863 a86.0,86.0 0 0,1 -40.68145358897372,12.25698825130547" fill="none" id="id42" stroke="none" /><text fill="#e1ed5e" style="font-size:6.75px; font-family:Arial;" text-anchor="middle"><textPath startOffset="21.466115282336833" xlink:href="#id42">June</textPath></text><path d="M 110.8373102113329 117.98757091392108 l 7.7964155835995985 12.940349168721344 a36.107505835200655,36.107505835200655 0 0,0 -0.5351340910926008,0.31616665351849843 l -7.572513621478616 -13.072634394533592" fill="#ff890c" stroke="none" /><path d="M 110.5260780823613 118.17145234162733 l 7.09702124888733 12.251779094036754 a35.15887712978096,35.15887712978096 0 0,0 -0.5262969704482238,0.29884515532769246 l -6.885075511517907 -12.372127415159076" fill="#ff7b0b" stroke="none" /><path d="M 110.21172684928248 118.3499491758327 l 6.140859548863994 11.034809516619491 a33.62842733941761,33.62842733941761 0 0,0 -0.5082331290601819,0.2771292246525489 l -5.950003607935164 -11.13887939303181" fill="#ff6409" stroke="none" /><path d="M 109.57404056367764 118.69057910512821 l 8.136404915044283 15.884006202452685 a38.84664500630615,38.84664500630615 0 0,0 -0.5977686444487066,0.2997336078000792 l -7.861782362912816 -16.021707651162068" fill="#ffb010" stroke="none" /><path d="M 108.92500713936063 119.00905698771935 l 12.46115197195709 26.540566777018057 a50.32033412690866,50.32033412690866 0 0,0 -0.7872304868745916,0.36137890530701683 l -12.002453489315078 -26.751132752659146" fill="#b6ff1f" stroke="none" /><path d="M 108.59647513512805 119.15986991738527 l 3.993971888405201 8.90178598002743 a30.75672102089549,30.75672102089549 0 0,0 -0.4849006878732267,0.21256621164597653 l -3.8401505258742206 -8.969216744967861" fill="#ff3805" stroke="none" /><path d="M 108.2653958097858 119.30500536409082 l 7.537580063976347 17.60508836068655 a40.150828948336276,40.150828948336276 0 0,0 -0.6376879704336041,0.26655362335927224 l -7.233420634045282 -17.732227027065797" fill="#ffc212" stroke="none" /><path d="M 107.93186726928326 119.44442032107085 l 2.985184019520659 7.31797076787803 a28.903418234531113,28.903418234531113 0 0,0 -0.4622880483488672,0.183953954976012 l -2.8587748951299257 -7.368271567260112" fill="#ff1c02" stroke="none" /><path d="M 107.59598834532513 119.57807347666477 l 5.467494999208707 14.092046217222515 a36.115530693783384,36.115530693783384 0 0,0 -0.5815112581244998,0.21987779988228043 l -5.224113520323932 -14.184072267211427" fill="#ff890c" stroke="none" /><path d="M 107.2578585660854 119.70592522655815 l 2.2621564820013993 6.142016419746371 a27.545358481358754,27.545358481358754 0 0,0 -0.44634031841181987,0.1600417581545891 l -2.1560966029598445 -6.18004571894092" fill="#ff0601" stroke="none" /><path d="M 106.91757812671514 119.82793768551818 l 9.161252153469063 26.259007631412334 a48.811221167111896,48.811221167111896 0 0,0 -0.795693256085595,0.2699423539144518 l -8.707889164446241 -26.41281297222491" fill="#c9ff1d" stroke="none" /><path d="M 106.57524785965236 119.94407469862006 l 4.373314321322012 13.265158875638576 a34.96747357788849,34.96747357788849 0 0,0 -0.5732645128077872,0.18354119390440826 l -4.144328463423285 -13.33847291620269" fill="#ff780b" stroke="none" /><path d="M 106.2309692047433 120.05430185196036 l 3.731757255227763 12.01061728528695 a33.577000428781844,33.577000428781844 0 0,0 -0.5534209586491425,0.1667411950596385 l -3.5244613221383747 -12.073073849452314" fill="#ff6309" stroke="none" /><path d="M 105.53697534728816 120.25689768951611 l 2.433634205529998 8.90339508903044 a30.230006476579362,30.230006476579362 0 0,0 -0.5031274370207056,0.13288052897128375 l -2.2800163256977948 -8.943966967305307" fill="#ff3004" stroke="none" /><path d="M 104.48393922423573 120.51570834832081 l 3.5616015610280107 16.295666650439294 a37.68034044202206,37.68034044202206 0 0,0 -0.6348393421254918,0.13303675656970348 l -3.2805707574731406 -16.35455938773554" fill="#ff9f0e" stroke="none" /><path d="M 104.13013068566511 120.58985236759428 l 2.67265935847178 13.3239516635153 a34.58936333969031,34.58936333969031 0 0,0 -0.5847782941398233,0.1120741518559674 l -2.4429134497602525 -13.367983013719735" fill="#ff720a" stroke="none" /><path d="M 103.7750983002368 120.6578951692458 l 2.293916878448791 12.552651781010866 a33.76052982366122,33.76052982366122 0 0,0 -0.5725641628735941,0.09954761888405084 l -2.0775037441031468 -12.590277978415923" fill="#ff6609" stroke="none" /><path d="M 103.06178313531738 120.77559828337769 l 2.772118553819778 18.810091676230925 a40.01326353219362,40.01326353219362 0 0,0 -0.68226693543739,0.09455598042114802 l -2.447923027195557 -18.855022222144676" fill="#ffc011" stroke="none" /><path d="M 102.70371172650421 120.8252237178851 l 1.6784905574359272 12.928501594419679 a34.03700441160905,34.03700441160905 0 0,0 -0.5816641659431274,0.0704314300228271 l -1.4556989684414194 -12.955478553167858" fill="#ff6a09" stroke="none" /><path d="M 102.34483914955558 120.86867818915974 l 1.3956048745948848 12.42065111914528 a33.49881143107287,33.49881143107287 0 0,0 -0.5735752687175918,0.059453421810359314 l -1.1815970092716903 -12.442833909411398" fill="#ff6209" stroke="none" /><path d="M 101.98527174616119 120.90594882070398 l 1.2032913796815587 12.671286965454277 a33.72829224622484,33.72829224622484 0 0,0 -0.5784493383500846,0.04991104290072362 l -0.9849977235899324 -12.690122260633663" fill="#ff6509" stroke="none" /><path d="M 101.62511606390274 120.93702456842531 l 1.0228553758826997 13.177857637670716 a34.21749465816758,34.21749465816758 0 0,0 -0.5876239431706312,0.04052598755494271 l -0.795868671933138 -13.193511969741945" fill="#ff6d0a" stroke="none" /><line stroke="#e1ed5e" stroke-width="0.3" x1="102.19456741930631" x2="102.32365962044197" y1="184.97166512339345" y2="189.96999836594603" /><path d="M 102.22038585953345 185.97133177190398 a86.0,86.0 0 0,1 -42.740103519485714,-10.115201625700543" fill="none" id="id43" stroke="none" /><text fill="#e1ed5e" style="font-size:6.75px; font-family:Arial;" text-anchor="middle"><textPath startOffset="22.20632615414155" xlink:href="#id43">July</textPath></text><path d="M 100.54218724476979 120.99299961872073 l 0.30729160891174495 11.898053100565539 a32.902020656879436,32.902020656879436 0 0,0 -0.5662912642562071,0.0097492176713805 l -0.10244065476286993 -11.90157979551608" fill="#ff5908" stroke="none" /><path d="M 99.81925306533755 120.99922214144158 l -0.1136124731979527 13.199524335933605 a34.20001327609066,34.20001327609066 0 0,0 -0.58863159067548,-0.01013382665064359 l 0.34080375376610067 -13.195613032003802" fill="#ff6d0a" stroke="none" /><path d="M 99.09653310690486 120.98055641714683 l -0.4635580327245471 10.764871997556215 a31.77484826684225,31.77484826684225 0 0,0 -0.5462428261276678,-0.028234514702904313 l 0.6487889272657038 -10.755297676091109" fill="#ff4806" stroke="none" /><path d="M 98.73552117531835 120.96189622390904 l -0.7296312905468273 12.095461857979334 a33.11744855066354,33.11744855066354 0 0,0 -0.5687326293027202,-0.03922313194532166 l 0.9377266806284775 -12.081110381517727" fill="#ff5c08" stroke="none" /><path d="M 98.37488393609728 120.93702456842531 l -0.6820519538345976 8.787149934438338 a29.813580364303107,29.813580364303107 0 0,0 -0.5113109703177601,-0.04411806200337512 l 0.8332072418938994 -8.7741076201563" fill="#ff2a04" stroke="none" /><path d="M 98.01472825383883 120.90594882070398 l -1.2023237820301493 12.661097656601052 a33.71805709795423,33.71805709795423 0 0,0 -0.577329249438845,-0.059842537261213025 l 1.4200856280745877 -12.63852575088408" fill="#ff6509" stroke="none" /><path d="M 97.65516085044442 120.86867818915974 l -1.7084138791619534 15.204599200282896 a36.30027825968392,36.30027825968392 0 0,0 -0.6203416382383046,-0.07511473328082323 l 1.9698829404516474 -15.172938938276724" fill="#ff8b0c" stroke="none" /><path d="M 96.22490169976321 120.6578951692458 l -2.9288511446677687 16.027105813132653 a37.29252251104697,37.29252251104697 0 0,0 -0.6304787250350364,-0.1208327482049741 l 3.2042974842745 -15.97431586657921" fill="#ff9a0e" stroke="none" /><path d="M 95.86986931433489 120.58985236759428 l -2.1711664772980948 10.823869905181592 a32.03948022311009,32.03948022311009 0 0,0 -0.539801984490507,-0.1131207542463751 l 2.3571599232179885 -10.784893170208676" fill="#ff4c07" stroke="none" /><path d="M 95.51606077576429 120.51570834832081 l -1.6248517490804697 7.434307854401352 a28.609801343038036,28.609801343038036 0 0,0 -0.48020850015685357,-0.10929389121104743 l 1.752580398630186 -7.405237229612618" fill="#ff1702" stroke="none" /><path d="M 93.76903079525671 120.05430185196036 l -3.2410203476615935 10.431186260858576 a31.923088377500257,31.923088377500257 0 0,0 -0.5233541870070868,-0.16756148369916474 l 3.420095879759621 -10.373851930499704" fill="#ff4a06" stroke="none" /><line stroke="#e1ed5e" stroke-width="0.3" x1="58.666819895761336" x2="56.23545636021788" y1="174.27360380694188" y2="178.64263932499728" /><path d="M 58.180547188652646 175.14741091055294 a86.0,86.0 0 0,1 -31.652253787137756,-30.449443065178592" fill="none" id="id44" stroke="none" /><text fill="#e1ed5e" style="font-size:6.75px; font-family:Arial;" text-anchor="middle"><textPath startOffset="22.20632615414155" xlink:href="#id44">August</textPath></text><line stroke="#e1ed5e" stroke-width="0.3" x1="26.63291911575756" x2="22.317208475507996" y1="142.92168965132927" y2="145.44649492493687" /><path d="M 25.769776987707644 143.4266507060508 a86.0,86.0 0 0,1 -11.730757126820373,-40.83630448921669" fill="none" id="id45" stroke="none" /><text fill="#e1ed5e" style="font-size:6.75px; font-family:Arial;" text-anchor="middle"><textPath startOffset="21.46611528233685" xlink:href="#id45">September</textPath></text><line stroke="#e1ed5e" stroke-width="0.3" x1="15.007084014347285" x2="10.007500721073583" y1="101.09737516637583" y2="101.16192664675087" /><path d="M 14.007167355692545 101.11028546245083 a86.0,86.0 0 0,1 10.666146001902534,-42.60595125391555" fill="none" id="id46" stroke="none" /><text fill="#e1ed5e" style="font-size:6.75px; font-family:Arial;" text-anchor="middle"><textPath startOffset="22.20632615414155" xlink:href="#id46">October</textPath></text><line stroke="#e1ed5e" stroke-width="0.3" x1="26.266209847984243" x2="21.928928074336255" y1="57.711370442889674" y2="55.22380399835377" /><path d="M 25.398753493254645 57.213857153982495 a86.0,86.0 0 0,1 29.58750427330803,-30.492523968695096" fill="none" id="id47" stroke="none" /><text fill="#e1ed5e" style="font-size:6.75px; font-family:Arial;" text-anchor="middle"><textPath startOffset="21.46611528233685" xlink:href="#id47">November</textPath></text><line stroke="#e1ed5e" stroke-width="0.3" x1="56.762969772571076" x2="54.21961505331055" y1="26.818313649435495" y2="22.513508569990535" /><path d="M 56.25429882871897 25.957352633546506 a86.0,86.0 0 0,1 42.265352541879196,-11.944610805530505" fill="none" id="id48" stroke="none" /><text fill="#e1ed5e" style="font-size:6.75px; font-family:Arial;" text-anchor="middle"><textPath startOffset="22.20632615414155" xlink:href="#id48">December</textPath></text></svg>