<?xml version="1.0" encoding="utf-8" ?>
<svg baseProfile="full" height="200mm" version="1.1" viewBox="0,0,200,200" width="200mm" xmlns="http://www.w3.org/2000/svg" xmlns:ev="http://www.w3.org/2001/xml-events" xmlns:xlink="http://www.w3.org/1999/xlink"><defs /><rect fill="#1a1a1a" height="200" width="200" x="0" y="0" /><rect fill="#1a1a1a" height="200" width="180" x="10" y="0" /><text alignment-baseline="middle" fill="#e1ed5e" style="dominant-baseline: central; font-size:9.0px; font-family:Arial;" text-anchor="middle" x="100.0" y="100.0">2025</text><line stroke="#e1ed5e" stroke-width="0.3" x1="100.0" x2="100.0" y1="15.0" y2="10.0" /><path d="M 100.0 14.0 a86.0,86.0 0 0,1 42.46469731375804,11.215312516191453" fill="none" id="id25" stroke="none" /><text fill="#e1ed5e" style="font-size:6.75px; font-family:Arial;" text-anchor="middle"><textPath startOffset="22.20632615414155" xlink:href="#id25">January</textPath></text><line stroke="#e1ed5e" stroke-width="0.3" x1="143.23703022742887" x2="145.7803849466894" y1="26.81831364943548" y2="22.513508569990506" /><path d="M 143.74570117128098 25.957352633546492 a86.0,86.0 0 0,1 28.547481713284135,27.462654790039103" fill="none" id="id26" stroke="none" /><text fill="#e1ed5e" style="font-size:6.75px; font-family:Arial;" text-anchor="middle"><textPath startOffset="19.985693538727396" xlink:href="#id26">February</textPath></text><line stroke="#e1ed5e" stroke-width="0.3" x1="172.23445277983987" x2="176.4835382374775" y1="55.19839476539836" y2="52.563006222186495" /><path d="M 173.08426987136738 54.67131705675599 a86.0,86.0 0 0,1 12.851231095245387,41.99856678651699" fill="none" id="id27" stroke="none" /><text fill="#e1ed5e" style="font-size:6.75px; font-family:Arial;" text-anchor="middle"><textPath startOffset="22.20632615414155" xlink:href="#id27">March</textPath></text><path d="M 120.73433829027371 96.67025291283417 l 12.289526058083768 -1.973586666797496 a33.44698738907053,33.44698738907053 0 0,0 0.08639533086033974,0.5692372847935544 l -12.321677282383407 1.7617502696118594" fill="#ff980e" stroke="none" /><path d="M 120.96714384426684 98.82574320788733 l 17.75988573637456 -0.9946355406335003 a38.787716020551144,38.787716020551144 0 0,0 0.031596088855973,0.6669434978324836 l -17.77437543346403 0.6887809361780171" fill="#ffde14" stroke="none" /><line stroke="#e1ed5e" stroke-width="0.3" x1="184.98032266829074" x2="189.97916517819016" y1="98.17113171792111" y2="98.06355123074" /><path d="M 185.9800911702706 98.14961562048488 a86.0,86.0 0 0,1 -9.607161424134198,41.387399972396054" fill="none" id="id28" stroke="none" /><text fill="#e1ed5e" style="font-size:6.75px; font-family:Arial;" text-anchor="middle"><textPath startOffset="21.466115282336823" xlink:href="#id28">April</textPath></text><path d="M 120.99513854157772 99.54816195383933 l 15.606615127940644 -0.33587120526142084 a36.610228865016346,36.610228865016346 0 0,0 0.008136175120563617,0.6301557294672222 l -15.610084310178923 0.06717921773373586" fill="#ffc212" stroke="none" /><path d="M 120.92983693683757 101.71520430193887 l 14.72224868139999 1.2064912091172062 a35.77160205511443,35.77160205511443 0 0,0 -0.05557442661256713,0.6132591667273999 l -14.699299658510347 -1.4597317643931766" fill="#ffb711" stroke="none" /><path d="M 120.8583938346157 102.4346265915055 l 11.720059683812556 1.3679849554325672 a32.79962634283045,32.79962634283045 0 0,0 -0.07028255631879489,0.5602211254847974 l -11.694775618246913 -1.5695238352047594" fill="#ff900d" stroke="none" /><path d="M 120.5718875245553 104.21870165774334 l 18.088079525910945 3.70934417127596 a39.46450256889304,39.46450256889304 0 0,0 -0.14219616776842747,0.6642931562723231 l -18.021549319418074 -4.0201511469644515" fill="#ffe615" stroke="none" /><path d="M 120.49622156327973 104.57218783832717 l 14.417239455534457 3.216120917571561 a35.77160205511443,35.77160205511443 0 0,0 -0.13923573846392984,0.5998239171647751 l -14.359743151139973 -3.463813492084901" fill="#ffb711" stroke="none" /><path d="M 120.41448212921028 104.9243191809786 l 20.22378168895611 4.878319001800849 a41.80382998598786,41.80382998598786 0 0,0 -0.17475729961440947,0.6980685420309662 l -20.13681307504664 -5.225715383229211" fill="#fbff18" stroke="none" /><path d="M 120.23288151984713 105.62410040840565 l 14.331230651493776 3.9836283369206833 a35.87459131247081,35.87459131247081 0 0,0 -0.17050230293745514,0.5935408843260119 l -14.260535711670222 -4.229726696751277" fill="#ffb811" stroke="none" /><path d="M 120.13307415673323 105.97154293290107 l 21.3414347495124 6.329947074366646 a43.26039234002802,43.26039234002802 0 0,0 -0.21789482478360658,0.7120928947030135 l -21.22931315222266 -6.696366941621717" fill="#e9ff1a" stroke="none" /><path d="M 119.79798401119884 107.00284435728193 l 15.396377103524545 5.445929871496683 a37.33115366651097,37.33115366651097 0 0,0 -0.21949960888094674,0.6039686523095118 l -15.300353233638372 -5.710146320812326" fill="#ffcb12" stroke="none" /><path d="M 119.67450827220406 107.3425965602758 l 15.176296315527793 5.663847837130065 a37.19873890705278,37.19873890705278 0 0,0 -0.2290480825042623,0.5979722665975254 l -15.076553953430025 -5.924243670560735" fill="#ffc912" stroke="none" /><path d="M 119.41010516605496 108.01547362559984 l 28.843180563196572 11.91089646886776 a52.205744978981784,52.205744978981784 0 0,0 -0.3501489503054347,0.8276486861942293 l -28.633880631698826 -12.405619680728153" fill="#83ff25" stroke="none" /><path d="M 119.12269723197855 108.67885076344098 l 18.51534393362518 8.403203004490031 a41.333021952358706,41.333021952358706 0 0,0 -0.299615957326927,0.6453461169953328 l -18.367953359458422 -8.720669188764195" fill="#fffd17" stroke="none" /><path d="M 118.97047184881838 109.00673069616215 l 15.1914404412887 7.212536094614672 a37.816674451191034,37.816674451191034 0 0,0 -0.28424947179914484,0.5856381038187205 l -15.06503771287484 -7.472963154398668" fill="#ffd113" stroke="none" /><path d="M 118.81262510543309 109.33194174019688 l 20.403043201688753 10.120863484697406 a43.7753386268099,43.7753386268099 0 0,0 -0.34065828899760914,0.672151122452534 l -20.225806242904877 -10.470568818852634" fill="#e3ff1b" stroke="none" /><path d="M 118.64920377521936 109.65438752849418 l 17.129219628196573 8.86751661596628 a40.28841662774404,40.28841662774404 0 0,0 -0.32412509223085084,0.6131225247705292 l -16.97404202774083 -9.161054155822946" fill="#fff016" stroke="none" /><line stroke="#e1ed5e" stroke-width="0.3" x1="174.80103733775053" x2="179.2010983576182" y1="140.37084112569926" y2="142.7455964860345" /><path d="M 175.68104954172406 140.8457921977663 a86.0,86.0 0 0,1 -30.038265399797805,32.042727171017184" fill="none" id="id29" stroke="none" /><text fill="#e1ed5e" style="font-size:6.75px; font-family:Arial;" text-anchor="middle"><textPath startOffset="22.206326154141568" xlink:href="#id29">May</textPath></text><path d="M 118.30583269289576 110.29060199501025 l 20.533142088738522 11.542681312945868 a44.55511443250818,44.55511443250818 0 0,0 -0.38157849485185236,0.6653142691212535 l -20.331411597734288 -11.894415427925436" fill="#daff1c" stroke="none" /><path d="M 118.12598468904814 110.60418214915192 l 14.375489024756538 8.410042638608118 a37.65483418963102,37.65483418963102 0 0,0 -0.3321140673491386,0.5566422800426186 l -14.228594081709172 -8.65624701253684" fill="#ffcf13" stroke="none" /><path d="M 117.55443506779139 111.5257021239791 l 13.971395308508413 9.173188425623719 a37.71368519383466,37.71368519383466 0 0,0 -0.36096826702278256,0.5395985823814444 l -13.81142393607491 -9.412323922210971" fill="#ffd013" stroke="none" /><path d="M 117.35343817320211 111.8261652097733 l 13.507475345932415 9.205186511951046 a37.345866417561886,37.345866417561886 0 0,0 -0.36659252497905953,0.5281038739948263 l -13.34702191379122 -9.436331648132892" fill="#ffcb12" stroke="none" /><path d="M 116.93607887273984 112.41649034213515 l 14.67767134440391 10.760764983573916 a39.199673049976646,39.199673049976646 0 0,0 -0.4036422688711184,0.5407447814297163 l -14.4902678088377 -11.011822644512947" fill="#ffe315" stroke="none" /><path d="M 116.498646956653 112.99209946851258 l 17.350165167166853 13.662639866116795 a43.083839327417095,43.083839327417095 0 0,0 -0.4638325881826502,0.5787024712786247 l -17.11241466692935 -13.95927017097367" fill="#ebff1a" stroke="none" /><path d="M 116.27256486870786 113.27417163493432 l 11.412076669950888 9.309280107358193 a35.727463801961704,35.727463801961704 0 0,0 -0.39283877645388526,0.473199612780519 l -11.250141893603459 -9.504340977252483" fill="#ffb610" stroke="none" /><path d="M 115.32070863581623 114.36230785411682 l 14.093477654479257 13.211847416479724 a40.31784212984587,40.31784212984587 0 0,0 -0.4790017844730344,0.5022314559960788 l -13.863969318627257 -13.45248598905831" fill="#fff116" stroke="none" /><path d="M 115.07121518719521 114.62390073753431 l 14.78260247226059 14.34385406297154 a41.597851471275106,41.597851471275106 0 0,0 -0.5030554456513189,0.5095925105221865 l -14.533506401553737 -14.596187067474391" fill="#feff18" stroke="none" /><path d="M 114.81725581225074 114.88116024355365 l 16.97305926181454 17.04626132522902 a45.05534796823914,45.05534796823914 0 0,0 -0.5542881568247497,0.54248762364557 l -16.677121152613996 -17.33589905179716" fill="#d4ff1c" stroke="none" /><path d="M 114.55890576462653 115.13401014063108 l 12.607291586930211 13.105303503376932 a39.18496029892573,39.18496029892573 0 0,0 -0.49011832863555505,0.46343747136853974 l -12.37983742390385 -13.320375611491395" fill="#ffe315" stroke="none" /><path d="M 114.29624159901734 115.38237550388516 l 5.208345841771847 5.604041519397676 a28.65063054647361,28.65063054647361 0 0,0 -0.36413648575772556,0.33263004614693653 l -5.111109806547257 -5.692864332131196" fill="#ff5708" stroke="none" /><path d="M 113.75828350139079 115.86535959552629 l 13.499632912445914 15.567096763335751 a41.60520784680056,41.60520784680056 0 0,0 -0.5450966206115413,0.46454316570379045 l -13.229670815257327 -15.797164319262489" fill="#fdff18" stroke="none" /><path d="M 113.20401910651253 116.32954008644616 l 13.879946474132225 17.165466099278714 a43.075011676786545,43.075011676786545 0 0,0 -0.5805742526774782,0.46124329904488026 l -13.582414728737396 -17.40184331232872" fill="#ecff1a" stroke="none" /><path d="M 112.63410532772338 116.77436683061366 l 9.143646055725066 12.140066045789757 a36.198271835590845,36.198271835590845 0 0,0 -0.5009410400141469,0.3705842055935929 l -8.933320045292355 -12.29566020012312" fill="#ffbc11" stroke="none" /><path d="M 112.04921762599082 117.19931262002967 l 10.602861283216583 15.134752440978934 a39.47921531994395,39.47921531994395 0 0,0 -0.5599339277874332,0.3851276612823428 l -10.340770470806266 -15.315020891626371" fill="#ffe615" stroke="none" /><path d="M 111.45004920935366 117.60387380957326 l 8.31077836120299 12.777403036000395 a36.242410088743576,36.242410088743576 0 0,0 -0.5258915186532424,0.33564884890052604 l -8.089605040502818 -12.91856631372473" fill="#ffbd11" stroke="none" /><line stroke="#e1ed5e" stroke-width="0.3" x1="143.8653032363475" x2="146.44561519142675" y1="172.8068346515853" y2="177.08958963109032" /><path d="M 144.38136562736335 173.6633856474863 a86.0,86.0 0 0,1 -40.68145358897372,12.25698825130547" fill="none" id="id30" stroke="none" /><text fill="#e1ed5e" style="font-size:6.75px; font-family:Arial;" text-anchor="middle"><textPath startOffset="21.466115282336833" xlink:href="#id30">June</textPath></text><path d="M 110.21172684928248 118.3499491758327 l 9.307886476587939 16.72579440291336 a40.14128911723493,40.14128911723493 0 0,0 -0.6066633079997922,0.3308012062929188 l -9.018600356719498 -16.88353626096605" fill="#ffee16" stroke="none" /><path d="M 109.89434966115114 118.52300852407294 l 11.188332802263853 20.945447751882558 a44.746380196170016,44.746380196170016 0 0,0 -0.6825082217067385,0.3570560442663251 l -10.826133678030619 -21.1349332150936" fill="#d8ff1c" stroke="none" /><path d="M 109.57404056367764 118.69057910512821 l 7.1302231101279725 13.91972367264219 a36.63965436711817,36.63965436711817 0 0,0 -0.5638076729804055,0.2827048716876703 l -6.889561529464807 -14.040396385239163" fill="#ffc212" stroke="none" /><path d="M 108.2653958097858 119.30500536409082 l 7.221122308362607 16.865956344480093 a39.346800560485754,39.346800560485754 0 0,0 -0.6249181411611091,0.26121583368770557 l -6.929732707704036 -16.98775722118777" fill="#ffe515" stroke="none" /><path d="M 107.2578585660854 119.70592522655815 l 7.927371441751853 21.52373009916218 a43.93717888836992,43.93717888836992 0 0,0 -0.7119505969916408,0.25528015409224597 l -7.555701284130477 -21.656997794294384" fill="#e1ff1b" stroke="none" /><path d="M 106.91757812671514 119.82793768551818 l 6.169600856124503 17.68400140611723 a39.72933208780944,39.72933208780944 0 0,0 -0.6476453744688287,0.21971647434336883 l -5.864285748718447 -17.78758086735872" fill="#ffe915" stroke="none" /><path d="M 105.88484417918355 120.15858648285463 l 5.79688761041481 19.857290468164603 a41.68612797758057,41.68612797758057 0 0,0 -0.6905383164668031,0.195153025834327 l -5.4542181258434015 -19.954132287337448" fill="#fcff18" stroke="none" /><path d="M 105.53697534728816 120.25689768951611 l 4.27492772025564 15.639725306291519 a37.21345165810369,37.21345165810369 0 0,0 -0.6193550957371223,0.16357731001504083 l -4.005082181707021 -15.710993965610143" fill="#ffca12" stroke="none" /><path d="M 105.18746579009965 120.34920634021253 l 4.212241604898762 16.52363158452101 a38.052078468005604,38.052078468005604 0 0,0 -0.6360979597565214,0.15633740232168183 l -3.9271903603990292 -16.59369024515672" fill="#ffd413" stroke="none" /><path d="M 104.48393922423573 120.51570834832081 l 3.458769560404159 15.82517157274723 a37.19873890705278,37.19873890705278 0 0,0 -0.6267253071130704,0.13133638164156589 l -3.1858527918617106 -15.882363935115338" fill="#ffc912" stroke="none" /><path d="M 102.70371172650421 120.8252237178851 l 2.6519358363656407 20.426422142717744 a41.597851471275106,41.597851471275106 0 0,0 -0.7108727691915442,0.08607679246884013 l -2.299935644122716 -20.469044463911935" fill="#feff18" stroke="none" /><path d="M 101.62511606390274 120.93702456842531 l 1.751117589642038 22.56035295626212 a43.62821111630079,43.62821111630079 0 0,0 -0.749236076625557,0.05167170648835291 l -1.3625187522375504 -22.587153007266757" fill="#e5ff1a" stroke="none" /><path d="M 101.26447882468166 120.96189622390904 l 0.7928831490589127 13.144019467817781 a34.167912190565154,34.167912190565154 0 0,0 -0.5873820941997402,0.030360944952764923 l -0.5665129864456929 -13.155720219532748" fill="#ffa20f" stroke="none" /><path d="M 100.90346689309514 120.98055641714683 l 0.6386721824845856 14.831420895540269 a35.84516581036898,35.84516581036898 0 0,0 -0.6166728046730421,0.021239458268024407 l -0.3832790261368912 -14.840217152234388" fill="#ffb811" stroke="none" /><line stroke="#e1ed5e" stroke-width="0.3" x1="102.19456741930631" x2="102.32365962044197" y1="184.97166512339345" y2="189.96999836594603" /><path d="M 102.22038585953345 185.97133177190398 a86.0,86.0 0 0,1 -42.740103519485714,-10.115201625700543" fill="none" id="id31" stroke="none" /><text fill="#e1ed5e" style="font-size:6.75px; font-family:Arial;" text-anchor="middle"><textPath startOffset="22.20632615414155" xlink:href="#id31">July</textPath></text><path d="M 100.18074693466247 120.99922214144158 l 0.1401822909887993 16.28641212791394 a37.28701541335825,37.28701541335825 0 0,0 -0.6418584513024983,0.0 l 0.1401822909887881 -16.28641212791394" fill="#ffca12" stroke="none" /><path d="M 99.45781275523022 120.99299961872073 l -0.6457624820938531 25.003339106836936 a46.01167678654834,46.01167678654834 0 0,0 -0.7915753527763894,-0.027263455667068687 l 1.0760581865448855 -24.988518852743773" fill="#c9ff1d" stroke="none" /><path d="M 98.73552117531835 120.96189622390904 l -1.0728284843690865 17.784812933550096 a38.81714152265297,38.81714152265297 0 0,0 -0.6666146072944346,-0.045973646229239364 l 1.3788058524424511 -17.763710942804572" fill="#ffde14" stroke="none" /><path d="M 98.37488393609728 120.93702456842531 l -1.3719744444204403 17.67569916274113 a38.7288650163475,38.7288650163475 0 0,0 -0.664210514431351,-0.057310878037224434 l 1.676029276593333 -17.64946403242524" fill="#ffdd14" stroke="none" /><path d="M 95.86986931433489 120.58985236759428 l -4.08865576285249 20.383088319998162 a41.789117234936946,41.789117234936946 0 0,0 -0.7040641189070984,-0.14754348160419023 l 4.438911343188975 -20.30968885766743" fill="#fbff18" stroke="none" /><path d="M 95.51606077576429 120.51570834832081 l -3.248290395511252 14.86215023271629 a36.21298458664175,36.21298458664175 0 0,0 -0.6078260665303834,-0.13833923383053737 l 3.5036366114344983 -14.804034265308067" fill="#ffbd11" stroke="none" /><path d="M 94.11515582081647 120.15858648285463 l -8.266543142874585 28.317117630633028 a50.49906585707613,50.49906585707613 0 0,0 -0.8323328790725802,-0.2507750687338495 l 8.752750996387412 -28.170627192793454" fill="#96ff23" stroke="none" /><path d="M 93.42475214034765 119.94407469862007 l -4.698799264487668 14.252421433390333 a36.007006071929005,36.007006071929005 0 0,0 -0.5869660954635423,-0.1991307683778563 l 4.9434350928884365 -14.169427678114355" fill="#ffba11" stroke="none" /><path d="M 93.08242187328487 119.8279376855182 l -5.96120114142429 17.086662788314367 a39.09668379262027,39.09668379262027 0 0,0 -0.633516035184451,-0.2271563107962299 l 6.254436737238468 -16.981518936478178" fill="#ffe115" stroke="none" /><path d="M 92.40401165467489 119.57807347666478 l -6.529853596249825 16.83019347678726 a39.05254553946754,39.05254553946754 0 0,0 -0.6246155701725091,-0.24854742596788693 l 6.818590242464192 -16.71529920641331" fill="#ffe115" stroke="none" /><path d="M 91.07499286063937 119.00905698771935 l -7.659832143192508 16.314405518418635 a39.023120037365715,39.023120037365715 0 0,0 -0.6055781178706384,-0.2907142974995287 l 7.939522929063389 -16.180136944419544" fill="#ffe115" stroke="none" /><line stroke="#e1ed5e" stroke-width="0.3" x1="58.666819895761336" x2="56.23545636021788" y1="174.27360380694188" y2="178.64263932499728" /><path d="M 58.180547188652646 175.14741091055294 a86.0,86.0 0 0,1 -31.652253787137756,-30.449443065178592" fill="none" id="id32" stroke="none" /><text fill="#e1ed5e" style="font-size:6.75px; font-family:Arial;" text-anchor="middle"><textPath startOffset="22.20632615414155" xlink:href="#id32">August</textPath></text><path d="M 89.7882731507175 118.34994917583269 l -8.77846018967979 15.774442530649264 a39.05254553946754,39.05254553946754 0 0,0 -0.5845817069141584,-0.33194074983123223 l 9.048690663515154 -15.620998615023398" fill="#ffe115" stroke="none" /><path d="M 89.1626897886671 117.98757091392108 l -11.464973203488572 19.02935456330278 a43.216254086875296,43.216254086875296 0 0,0 -0.6338811980841886,-0.38938160446247827 l 11.790833601505069 -18.829184492011922" fill="#eaff1a" stroke="none" /><path d="M 88.24862548938628 117.40417183066458 l -8.249563703620929 12.217874946982187 a35.74217655301261,35.74217655301261 0 0,0 -0.5069314864241886,-0.34867209881063593 l 8.458652074668008 -12.074062058806451" fill="#ffb710" stroke="none" /><path d="M 87.95078237400918 117.19931262002967 l -8.745672204946162 12.483760771380718 a36.242410088743576,36.242410088743576 0 0,0 -0.5078643267624301,-0.3623477125107939 l 8.95926385955748 -12.331368797025705" fill="#ffbd11" stroke="none" /><path d="M 87.07902340077011 116.55440617244103 l -12.139441583069082 15.553100427774465 a40.729799159271366,40.729799159271366 0 0,0 -0.5489649750075527,-0.43613097715726057 l 12.405364050793994 -15.341835536612075" fill="#fff617" stroke="none" /><path d="M 86.79598089348748 116.32954008644616 l -10.185164668101557 12.596093158694925 a37.19873890705278,37.19873890705278 0 0,0 -0.4944418671154917,-0.40689199520511077 l 10.400476663761737 -12.418906044632635" fill="#ffc912" stroke="none" /><path d="M 86.24171649860922 115.8653595955263 l -12.839350974207743 14.805692887371107 a40.59738439981317,40.59738439981317 0 0,0 -0.5240110235028648,-0.46237880252428615 l 13.092304350617196 -14.582490943074532" fill="#fff417" stroke="none" /><path d="M 85.44109423537348 115.13401014063109 l -18.757936268903435 19.498910309636088 a48.05674918262494,48.05674918262494 0 0,0 -0.5912125447616984,-0.5786259087953619 l 19.090798766040926 -19.173134297918157" fill="#b1ff20" stroke="none" /><path d="M 85.18274418774928 114.88116024355367 l -14.055976905502675 14.116598063828814 a40.92106492293321,40.92106492293321 0 0,0 -0.4948708604709553,-0.5013015689456642 l 14.296888391029164 -13.872556000902485" fill="#fff817" stroke="none" /><path d="M 84.9287848128048 114.62390073753433 l -13.610553276245636 13.206591347978804 a39.96473610462401,39.96473610462401 0 0,0 -0.4748066587605968,-0.49783288345847887 l 13.835866486385191 -12.970351347937825" fill="#ffec16" stroke="none" /><path d="M 84.43433777217949 114.09645910891817 l -13.23917371175205 11.989561904409149 a38.8612797758057,38.8612797758057 0 0,0 -0.4447602231169004,-0.49969282554259514 l 13.44359278451729 -11.75989490912569" fill="#ffde14" stroke="none" /><path d="M 83.95833913139862 113.55231037782056 l -12.385271095655348 10.463320436495748 a37.21345165810369,37.21345165810369 0 0,0 -0.40917784979165017,-0.4928810791734658 l 12.563544945340535 -10.24857810020852" fill="#ffca12" stroke="none" /><path d="M 83.50135304334701 112.99209946851258 l -11.628425155343004 9.156972488549975 a35.80102755721626,35.80102755721626 0 0,0 -0.3770925348687764,-0.48744293390314236 l 11.784324507429849 -8.95545156053358" fill="#ffb711" stroke="none" /><path d="M 82.85270091963577 112.12312394758628 l -16.33838866134658 11.551225059820654 a41.009341429238674,41.009341429238674 0 0,0 -0.4025537352429324,-0.5799086794937415 l 16.534803303751648 -11.268275118139899" fill="#fff917" stroke="none" /><path d="M 82.6465618267979 111.8261652097733 l -13.398053853481118 9.130617044257479 a37.21345165810369,37.21345165810369 0 0,0 -0.35618039143936897,-0.5324413580117309 l 13.553237350331216 -8.898638772039927" fill="#ffca12" stroke="none" /><path d="M 82.44556493220864 111.52570212397912 l -14.783113697911178 9.706137753168774 a38.68472676319477,38.68472676319477 0 0,0 -0.360680064848637,-0.559783470298836 l 14.94799862613686 -9.45023268294849" fill="#ffdc14" stroke="none" /><line stroke="#e1ed5e" stroke-width="0.3" x1="26.63291911575756" x2="22.317208475507996" y1="142.92168965132927" y2="145.44649492493687" /><path d="M 25.769776987707644 143.4266507060508 a86.0,86.0 0 0,1 -11.730757126820373,-40.83630448921669" fill="none" id="id33" stroke="none" /><text fill="#e1ed5e" style="font-size:6.75px; font-family:Arial;" text-anchor="middle"><textPath startOffset="21.46611528233685" xlink:href="#id33">September</textPath></text><path d="M 81.87401531095188 110.60418214915194 l -20.40760676924359 11.938991625656588 a44.64339093881364,44.64339093881364 0 0,0 -0.38233451168260396,-0.6666324481905259 l 20.61009327707857 -11.585939331607754" fill="#d9ff1c" stroke="none" /><path d="M 81.69416730710424 110.29060199501025 l -14.2487950409672 8.009943122225398 a37.345866417561886,37.345866417561886 0 0,0 -0.310190481556913,-0.5630858249417519 l 14.384561931975629 -7.763486778885824" fill="#ffcb12" stroke="none" /><path d="M 81.35079622478065 109.6543875284942 l -15.757314165984031 8.15730361468753 a38.74357776739841,38.74357776739841 0 0,0 -0.3015012864755939,-0.5948906416508147 l 15.895394122245893 -7.884858761334031" fill="#ffdd14" stroke="none" /><path d="M 81.18737489456691 109.33194174019688 l -13.193440726673417 6.544563532417385 a35.727463801961704,35.727463801961704 0 0,0 -0.26854589574072224,-0.5532840858927839 l 13.304139879028858 -6.316490490559316" fill="#ffb610" stroke="none" /><path d="M 80.87730276802145 108.67885076344099 l -17.604313986095146 7.989731366063615 a40.33255488089678,40.33255488089678 0 0,0 -0.2814807377790645,-0.6346647549472372 l 17.73923580860549 -7.685518274623682" fill="#fff116" stroke="none" /><path d="M 80.45479744820244 107.68017299344265 l -17.034725811141644 6.693695845756184 a39.30266230733302,39.30266230733302 0 0,0 -0.24200281254965395,-0.6317929788414464 l 17.147422903284806 -6.39947930008158" fill="#ffe415" stroke="none" /><path d="M 80.32549172779594 107.34259656027581 l -8.491006839568682 3.168873994252615 a30.063054647361046,30.063054647361046 0 0,0 -0.17676466138205849,-0.4863804307222097 l 8.544295761955965 -3.0222457665242883" fill="#ff6a09" stroke="none" /><path d="M 80.20201598880116 107.00284435728193 l -20.847526834772424 7.374083420594163 a43.11326482951891,43.11326482951891 0 0,0 -0.2414531072344882,-0.7017757513176065 l 20.97137077295014 -7.014134966187259" fill="#ebff1a" stroke="none" /><path d="M 79.86692584326677 105.97154293290107 l -14.190008828823188 4.208808167093753 a35.80102755721626,35.80102755721626 0 0,0 -0.17015267415493704,-0.592323780667083 l 14.260354139864228 -3.9639269109220745" fill="#ffb711" stroke="none" /><path d="M 79.76711848015287 105.62410040840567 l -21.319654698166794 5.926188940384491 a43.127977580569826,43.127977580569826 0 0,0 -0.19266278763438383,-0.7169699051037625 l 21.41850556214295 -5.55832810210519" fill="#ebff1a" stroke="none" /><path d="M 79.58551787078972 104.9243191809786 l -30.607420660796368 7.383028758029574 a52.48528724894909,52.48528724894909 0 0,0 -0.20429131793815944,-0.8800816508770571 l 30.729972544665085 -6.855078449803942" fill="#80ff25" stroke="none" /><path d="M 79.35854240842038 103.8639653848113 l -17.614172358624934 3.297274525011788 a38.920130780009345,38.920130780009345 0 0,0 -0.11760098869598282,-0.659568798267449 l 17.668319789660103 -2.9935869760111253" fill="#ffdf14" stroke="none" /><path d="M 79.29508885075956 103.50808413554451 l -11.63381976297816 1.9711467608874562 a32.79962634283045,32.79962634283045 0 0,0 -0.08952462093220163,-0.5574699000027526 l 11.66602613827165 -1.77059763119149" fill="#ff900d" stroke="none" /><path d="M 79.23777060512086 103.15116336523772 l -14.69162892724984 2.229804996887039 a35.8598785614199,35.8598785614199 0 0,0 -0.08737165319164597,-0.6110771389255747 l 14.727834631458084 -1.9765823859810636" fill="#ffb811" stroke="none" /><path d="M 79.10278846688536 102.07522291339032 l -55.283421823242115 5.489987193574377 a76.55534796823915,76.55534796823915 0 0,0 -0.11893567307679916,-1.3124452416527048 l 55.36973209259599 -4.537560563373106" fill="#44ffe4" stroke="none" /><line stroke="#e1ed5e" stroke-width="0.3" x1="15.007084014347285" x2="10.007500721073583" y1="101.09737516637583" y2="101.16192664675087" /><path d="M 14.007167355692545 101.11028546245083 a86.0,86.0 0 0,1 10.666146001902534,-42.60595125391555" fill="none" id="id34" stroke="none" /><text fill="#e1ed5e" style="font-size:6.75px; font-family:Arial;" text-anchor="middle"><textPath startOffset="22.20632615414155" xlink:href="#id34">October</textPath></text><path d="M 79.00486145842228 99.54816195383935 l -1.6033186135207653 -0.03450514738312287 a22.603689864549278,22.603689864549278 0 0,0 0.011719803889288161,-0.3889232345908923 l 1.6024871151758322 0.06209852939900959" fill="#ff0000" stroke="none" /><path d="M 79.03285615573316 98.82574320788736 l -8.035283290154577 -0.45001293691192196 a29.0478748248482,29.0478748248482 0 0,0 0.032256155880630716,-0.4989884545608153 l 8.026346543269533 0.588260455725749" fill="#ff5c08" stroke="none" /><path d="M 79.08570108090925 98.10471618934814 l -14.696666381957986 -1.3318330187415763 a35.75688930406352,35.75688930406352 0 0,0 0.06082566012397728,-0.6125060965983182 l 14.671563596151781 1.584614646044325" fill="#ffb710" stroke="none" /><path d="M 79.16333360222342 97.38593545837743 l -11.693253001834918 -1.4669773688741283 a32.78491359177954,32.78491359177954 0 0,0 0.075068086477903,-0.5593444379490313 l 11.666268916299181 1.6680401488878192" fill="#ff8f0d" stroke="none" /><path d="M 79.26566170972629 96.67025291283419 l -15.020531848769044 -2.4121614816413692 a36.21298458664175,36.21298458664175 0 0,0 0.10413498704686434,-0.6146105882942378 l 14.976785000201957 2.670357858251435" fill="#ffbd11" stroke="none" /><path d="M 79.32604984820605 96.31383870115002 l -19.495892272990172 -3.476113807743164 a40.80336291452592,40.80336291452592 0 0,0 0.12923838791918527,-0.6903966360372245 l 19.433168161161124 3.8111885212429613" fill="#fff717" stroke="none" /><path d="M 79.46518482838121 95.60439243477599 l -10.933997802730234 -2.3404916507965297 a32.1816907986922,32.1816907986922 0 0,0 0.12061331912485507,-0.5406858597415152 l 10.892090096603342 2.528355680088004" fill="#ff870c" stroke="none" /><path d="M 79.54389044137918 95.25157060432595 l -9.05763281717541 -2.1025273550205505 a30.29845866417562,30.29845866417562 0 0,0 0.12230073797026772,-0.5070155158356484 l 9.020099278944327 2.2581281025155957" fill="#ff6e0a" stroke="none" /><path d="M 79.71946130924805 94.55025226153421 l -5.527180908946177 -1.485253528909289 a26.723260158804298,26.723260158804298 0 0,0 0.1231983389032929,-0.44320997376697385 l 5.500795799476524 1.5801748060952054" fill="#ff3c05" stroke="none" /><path d="M 79.91906864156998 93.8553929516997 l -30.205810107344178 -9.242740307823977 a52.58827650630546,52.58827650630546 0 0,0 0.27231841372105325,-0.8633237892128812 l 30.04223620985492 9.761314263463273" fill="#7fff26" stroke="none" /><path d="M 80.2630227832202 92.82701384747504 l -11.670720764335934 -4.241476164921344 a33.417561886968706,33.417561886968706 0 0,0 0.20113459457027313,-0.5389407156193525 l 11.595981581264034 4.441740017570038" fill="#ff980e" stroke="none" /><path d="M 80.52162464483688 92.15188598940014 l -11.408632739549072 -4.5967001257787095 a33.29985987856142,33.29985987856142 0 0,0 0.21879326156999154,-0.5298252374175657 l 11.32781779109288 4.792399933649587" fill="#ff960d" stroke="none" /><path d="M 80.65960295795068 91.81776055985345 l -10.961967216500167 -4.63762146689296 a32.90261560018683,32.90261560018683 0 0,0 0.22516245391533277,-0.5197059876152511 l 10.880514052742152 4.825626599094811" fill="#ff910d" stroke="none" /><path d="M 80.803312248108 91.48605970444005 l -22.32590028127562 -9.901780166251404 a45.42316674451191,45.42316674451191 0 0,0 0.32314837465797225,-0.7120146086185752 l 22.152149589654293 10.284616783712051" fill="#d0ff1d" stroke="none" /><path d="M 81.26839172434947 90.50648371742162 l -11.351827061025952 -5.753310311371065 a33.72652965903784,33.72652965903784 0 0,0 0.26690624197989166,-0.5155779049546177 l 11.251111385885945 5.947860938586018" fill="#ff9c0e" stroke="none" /><path d="M 81.6062741919709 89.86733742301443 l -3.247467704546942 -1.7889521037368263 a24.70761326482952,24.70761326482952 0 0,0 0.20841737579839661,-0.3707512557096112 l 3.2161926874561146 1.8445868693812222" fill="#ff1f03" stroke="none" /><line stroke="#e1ed5e" stroke-width="0.3" x1="26.266209847984243" x2="21.928928074336255" y1="57.711370442889674" y2="55.22380399835377" /><path d="M 25.398753493254645 57.213857153982495 a86.0,86.0 0 0,1 29.58750427330803,-30.492523968695096" fill="none" id="id35" stroke="none" /><text fill="#e1ed5e" style="font-size:6.75px; font-family:Arial;" text-anchor="middle"><textPath startOffset="21.46611528233685" xlink:href="#id35">November</textPath></text><path d="M 81.96595687620814 89.24020034530311 l -27.0636994660174 -16.14723787507759 a52.51471275105091,52.51471275105091 0 0,0 0.46984213730761065,-0.7722969370618045 l 26.781741530423574 16.610702585346466" fill="#80ff26" stroke="none" /><path d="M 82.54541684631803 88.32363383020206 l -12.338865765108663 -8.25417104063016 a35.84516581036898,35.84516581036898 0 0,0 0.347485656335165,-0.5098923231939586 l 12.194955643104757 8.465341387094535" fill="#ffb811" stroke="none" /><path d="M 83.39014120810768 87.1503855733568 l -49.82957637567698 -38.54884327992962 a84.0,84.0 0 0,0 0.8945836776241158,-1.1360304241878092 l 49.15863861745889 39.40086609807048" fill="#4dd2ff" stroke="none" /><path d="M 84.07557802195018 86.31012108654704 l -11.61419192840952 -9.984467969807005 a36.31597384399813,36.31597384399813 0 0,0 0.4115951074745606,-0.4705243592520332 l 11.440604957357115 10.182907885261981" fill="#ffbe11" stroke="none" /><path d="M 84.5562425177563 85.77008943001954 l -10.841647592626009 -9.989516855058682 a35.74217655301261,35.74217655301261 0 0,0 0.4207920965621946,-0.4488716697320809 l 10.66808817409336 10.174657941668812" fill="#ffb710" stroke="none" /><path d="M 85.05521093208273 85.24692304244772 l -7.025656327351117 -6.935531040530771 a30.87225595516114,30.87225595516114 0 0,0 0.3765888925611311,-0.3749717001769177 l 6.905231634622672 7.055438591357798" fill="#ff760a" stroke="none" /><path d="M 85.31137513191541 84.99185889309783 l -11.443543334873938 -11.692470512056442 a37.3605791686128,37.3605791686128 0 0,0 0.46347890008419595,-0.44586633466714043 l 11.240581191177315 11.887719933485895" fill="#ffcb13" stroke="none" /><path d="M 85.83668400450813 84.49514656593479 l -9.942766903888037 -10.884537464455875 a35.74217655301261,35.74217655301261 0 0,0 0.4578215605792995,-0.4110367174426661 l 9.753934355712767 11.054073190667818" fill="#ffb710" stroke="none" /><path d="M 87.51073957382395 83.11751280151077 l -13.127723552586584 -17.745536345558197 a43.073540401681456,43.073540401681456 0 0,0 0.5998599348426834,-0.43582375350973557 l 12.820318301390119 17.9688793338846" fill="#ecff1a" stroke="none" /><path d="M 87.80319425747018 82.90503203632743 l -8.844250777803623 -12.3960475308742 a36.22769733769267,36.22769733769267 0 0,0 0.5107568126799397,-0.35781778759989635 l 8.629562825540022 12.54645016123804" fill="#ffbd11" stroke="none" /><path d="M 88.39885842347998 82.49532879139004 l -9.761539724474932 -14.728942168290914 a38.67001401214386,38.67001401214386 0 0,0 0.5580137790030116,-0.36294768402663863 l 9.506558919687633 14.894788776477087" fill="#ffdc14" stroke="none" /><path d="M 88.70189139769569 82.29822771554957 l -19.852164671587495 -31.104188385848904 a57.89957963568426,57.89957963568426 0 0,0 0.8447296326700859,-0.5289696184823648 l 19.313815886545168 31.4413023456542" fill="#48ff2c" stroke="none" /><line stroke="#e1ed5e" stroke-width="0.3" x1="56.762969772571076" x2="54.21961505331055" y1="26.818313649435495" y2="22.513508569990535" /><path d="M 56.25429882871897 25.957352633546506 a86.0,86.0 0 0,1 42.265352541879196,-11.944610805530505" fill="none" id="id36" stroke="none" /><text fill="#e1ed5e" style="font-size:6.75px; font-family:Arial;" text-anchor="middle"><textPath startOffset="22.20632615414155" xlink:href="#id36">December</textPath></text><path d="M 89.63071344664047 81.73862282372117 l -11.136933409364886 -19.613282025620347 a43.554647361046236,43.554647361046236 0 0,0 0.6551363766817289,-0.3645826843222794 l 10.797672943611113 19.80208010750281" fill="#e6ff1a" stroke="none" /><path d="M 89.94658935756843 81.56283822128135 l -7.057578792888674 -12.943042575158396 a35.74217655301261,35.74217655301261 0 0,0 0.5426938115137111,-0.28988823943373426 l 6.833739934846658 13.06260954109388" fill="#ffb710" stroke="none" /><path d="M 90.91171255644093 81.06846463323043 l -13.473248176485976 -28.06571380388911 a52.13218122372723,52.13218122372723 0 0,0 0.8123231232800472,-0.38139659844388585 l 12.98814684190632 28.293475384973004" fill="#84ff25" stroke="none" /><path d="M 94.28887869178378 79.79150937346287 l -6.005880254763586 -21.25147904981239 a43.083839327417095,43.083839327417095 0 0,0 0.7154012244674446,-0.19554617908477115 l 5.639181141072418 21.351711769723455" fill="#ebff1a" stroke="none" /><path d="M 94.63758080256005 79.69619591428918 l -4.711214624187084 -17.838138946857573 a39.44978981784213,39.44978981784213 0 0,0 0.6580433674492911,-0.16774990630959002 l 4.403462368052793 17.916591849336026" fill="#ffe615" stroke="none" /><path d="M 95.33964822691252 79.52364482259891 l -1.962310660176724 -8.6218749147254 a29.842363381597384,29.842363381597384 0 0,0 0.5018594169840787,-0.10968703037987901 l 1.8136085190391242 8.654375443201147" fill="#ff6709" stroke="none" /><path d="M 96.75951476605007 79.25152402106235 l -2.272577570656612 -14.551068044079816 a35.727463801961704,35.727463801961704 0 0,0 0.6084404431521004,-0.08966830520489052 l 2.021768147075863 14.588030833445675" fill="#ffb610" stroke="none" /><path d="M 97.47563105711357 79.15227682838746 l -2.166524022678098 -17.892429391797307 a39.023120037365715,39.023120037365715 0 0,0 0.6675430500170887,-0.0750062396624119 l 1.8582142691512913 17.92707158493032" fill="#ffe115" stroke="none" /><path d="M 97.83486435360386 79.11191278185805 l -1.8642819075811734 -17.985608961534176 a39.08197104156936,39.08197104156936 0 0,0 0.6697437791260875,-0.06360024188662453 l 1.5544130013648494 18.01503474793598" fill="#ffe115" stroke="none" /></svg>